<?xml version="1.0" encoding="utf-8"?>
<!-- Generator: Adobe Illustrator 16.0.0, SVG Export Plug-In . SVG Version: 6.00 Build 0)  -->
<!DOCTYPE svg PUBLIC "-//W3C//DTD SVG 1.1//EN" "http://www.w3.org/Graphics/SVG/1.1/DTD/svg11.dtd">
<svg version="1.1" id="Layer_1" xmlns="http://www.w3.org/2000/svg" xmlns:xlink="http://www.w3.org/1999/xlink" x="0px" y="0px"
	 width="509.819px" height="216.964px" viewBox="-83.18 0 509.819 216.964" enable-background="new -83.18 0 509.819 216.964"
	 xml:space="preserve">
<g>
	<path fill="#003F5F" d="M156.388,15.88h0.101h33.917h0.104c11.476,20.823,19.128,43.913,22.307,68.485h-29.241
		c-1.973-12.884-5.342-25.265-10.087-36.953c-7.673,18.896-11.871,39.599-11.871,61.244c0,21.638,4.198,42.277,11.871,61.175
		c4.745-11.619,8.114-24.072,10.087-36.887h29.241c-3.179,24.573-10.831,47.662-22.307,68.49h-0.104h-33.917h-0.101
		c-15.074-27.614-23.73-59.155-23.73-92.778C132.658,75.035,141.314,43.42,156.388,15.88"/>
	<polygon fill="#003F5F" points="293.971,15.88 212.399,15.88 212.399,44.915 238.626,44.915 238.626,201.433 267.598,201.433 
		267.598,44.915 293.971,44.915 	"/>
	<path fill="#003F5F" d="M344.588,201.433h28.97h0.002v-92.846v-0.047c0-0.447-0.002-0.896-0.007-1.347
		c0.187-21.182,4.38-41.366,11.963-59.956c7.6,18.944,11.81,39.634,11.826,61.303h-0.011v92.893h28.973v-92.846v-0.047
		c-0.019-33.577-8.601-65.151-23.727-92.66h-0.245h-33.774h-0.246c-3.384,6.274-6.424,12.693-9.237,19.308
		c-2.672-6.614-5.855-13.033-9.24-19.308h-0.248h-33.772h-0.243c-15.129,27.509-23.71,59.083-23.729,92.66v0.047v92.846h28.971
		v-92.893h-0.011c0.015-21.669,4.226-42.358,11.972-61.303c7.438,18.59,11.634,38.774,11.819,59.956
		c-0.005,0.45-0.009,0.899-0.009,1.347v0.047v92.846H344.588L344.588,201.433z"/>
	<g>
		<path fill="#003F5F" d="M-11.569,15.529c-1.703,0-3.14,1.439-3.14,3.146c0,0.653,0,1.803,0,2.54c0,0.362,0,0.607,0,0.607v1.101
			v1.172c0,0,0,0.246,0,0.607c0,0.71,0,2.026,0,2.54c0,1.706,1.438,3.076,3.14,3.076c1.702,0,3.142-1.37,3.142-3.076
			c0-0.653,0-1.876,0-2.54c0-0.363,0-0.607,0-0.607v-1.172v-1.101c0,0,0-0.247,0-0.607c0-0.783,0-2.026,0-2.54
			C-8.427,16.968-9.867,15.529-11.569,15.529z"/>
		<path fill="#003F5F" d="M-4.19,16.113c-1.701,0-3.139,1.441-3.139,3.147c0,1.707,1.438,3.148,3.139,3.148
			c1.702,0,3.141-1.441,3.141-3.148C-1.05,17.554-2.489,16.113-4.19,16.113z"/>
		<path fill="#003F5F" d="M3.188,16.113c-1.7,0-3.14,1.441-3.14,3.147c0,1.707,1.439,3.148,3.14,3.148
			c1.705,0,3.142-1.441,3.142-3.148C6.329,17.554,4.892,16.113,3.188,16.113z"/>
		<path fill="#003F5F" d="M10.568,16.113c-1.702,0-3.14,1.441-3.14,3.147c0,1.707,1.439,3.148,3.14,3.148
			c1.702,0,3.142-1.441,3.142-3.148C13.708,17.554,12.27,16.113,10.568,16.113z"/>
		<path fill="#003F5F" d="M25.325,16.113c-1.743,0-3.138,1.441-3.138,3.147c0,1.707,1.395,3.148,3.138,3.148
			c1.704,0,3.099-1.441,3.099-3.148C28.422,17.554,27.029,16.113,25.325,16.113z"/>
		<path fill="#003F5F" d="M32.704,15.529c-1.772,0-3.14,1.439-3.14,3.146c0,0.653,0,1.803,0,2.54c0,0.362,0,0.607,0,0.607v1.101
			v1.172c0,0,0,0.246,0,0.607c0,0.71,0,2.026,0,2.54c0,1.706,1.368,3.076,3.14,3.076c1.703,0,3.069-1.37,3.069-3.076
			c0-0.653,0-1.876,0-2.54c0-0.363,0-0.607,0-0.607v-1.172v-1.101c0,0,0-0.247,0-0.607c0-0.783,0-2.026,0-2.54
			C35.773,16.968,34.406,15.529,32.704,15.529z"/>
		<path fill="#003F5F" d="M-18.948,23.508c-1.702,0-3.139,1.442-3.139,3.148c0,1.705,1.438,3.146,3.139,3.146
			s3.142-1.441,3.142-3.146C-15.805,24.951-17.246,23.508-18.948,23.508z"/>
		<path fill="#003F5F" d="M17.946,23.508c-1.701,0-3.14,1.442-3.14,3.148c0,1.705,1.438,3.146,3.14,3.146
			c1.704,0,3.141-1.441,3.141-3.146C21.085,24.951,19.649,23.508,17.946,23.508z"/>
		<path fill="#003F5F" d="M40.083,22.923c-1.774,0-3.141,1.441-3.141,3.146c0,0.654,0,1.804,0,2.539c0,0.364,0,0.606,0,0.606v1.103
			v1.172c0,0,0,0.246,0,0.607c0,0.71,0,2.028,0,2.541c0,1.705,1.366,3.074,3.141,3.074c1.701,0,3.068-1.369,3.068-3.074
			c0-0.653,0-1.876,0-2.541c0-0.363,0-0.607,0-0.607v-1.172v-1.103c0,0,0-0.246,0-0.606c0-0.78,0-2.026,0-2.539
			C43.152,24.365,41.784,22.923,40.083,22.923z"/>
		<path fill="#003F5F" d="M-4.19,30.904c-1.701,0-3.139,1.422-3.139,3.146c0,1.708,1.438,3.118,3.139,3.118
			c1.702,0,3.141-1.41,3.141-3.118C-1.05,32.326-2.489,30.904-4.19,30.904z"/>
		<path fill="#003F5F" d="M3.188,30.904c-1.7,0-3.14,1.422-3.14,3.146c0,1.708,1.439,3.118,3.14,3.118
			c1.705,0,3.142-1.41,3.142-3.118C6.329,32.326,4.892,30.904,3.188,30.904z"/>
		<path fill="#003F5F" d="M-11.569,37.712c-1.703,0-3.14,1.441-3.14,3.148c0,0.652,0,1.803,0,2.539c0,0.363,0,0.607,0,0.607v1.102
			v3.733v3.661v1.173c0,0,0,0.248,0,0.537c0,0.782,0,2.098,0,2.537c0,1.779,1.438,3.149,3.14,3.149c1.702,0,3.142-1.37,3.142-3.149
			c0-0.581,0-1.802,0-2.537c0-0.293,0-0.537,0-0.537v-1.173v-7.395v-1.102c0,0,0-0.247,0-0.607c0-0.783,0-2.026,0-2.539
			C-8.427,39.154-9.867,37.712-11.569,37.712z"/>
		<path fill="#003F5F" d="M10.568,38.296c-1.702,0-3.14,1.371-3.14,3.149c0,1.707,1.439,3.077,3.14,3.077
			c1.702,0,3.142-1.37,3.142-3.077C13.708,39.667,12.27,38.296,10.568,38.296z"/>
		<path fill="#003F5F" d="M-18.948,45.696c-1.702,0-3.139,1.368-3.139,3.146c0,1.707,1.438,3.076,3.139,3.076
			s3.142-1.369,3.142-3.076C-15.805,47.063-17.246,45.696-18.948,45.696z"/>
		<path fill="#003F5F" d="M3.188,45.109c-1.7,0-3.14,1.439-3.14,3.147c0,0.652,0,1.802,0,2.538c0,0.363,0,0.607,0,0.607v1.102v1.172
			c0,0,0,0.248,0,0.536c0,0.781,0,2.099,0,2.538c0,1.779,1.439,3.148,3.14,3.148c1.705,0,3.142-1.369,3.142-3.148
			c0-0.58,0-1.803,0-2.538c0-0.292,0-0.536,0-0.536v-1.172v-1.102c0,0,0-0.247,0-0.607c0-0.78,0-2.026,0-2.538
			C6.329,46.55,4.892,45.109,3.188,45.109z"/>
		<path fill="#003F5F" d="M17.946,45.696c-1.701,0-3.14,1.368-3.14,3.146c0,1.707,1.438,3.076,3.14,3.076
			c1.704,0,3.141-1.369,3.141-3.076C21.085,47.063,19.649,45.696,17.946,45.696z"/>
		<path fill="#003F5F" d="M25.325,45.109c-1.743,0-3.138,1.439-3.138,3.147c0,0.652,0,1.802,0,2.538c0,0.363,0,0.607,0,0.607v1.102
			v3.733V59.9v1.171c0,0,0,0.244,0,0.536c0,0.783,0,2.1,0,2.54c0,1.778,1.395,3.147,3.138,3.147c1.704,0,3.099-1.369,3.099-3.147
			c0-0.582,0-1.804,0-2.54c0-0.292,0-0.536,0-0.536V59.9v-7.396v-1.102c0,0,0-0.247,0-0.607c0-0.78,0-2.026,0-2.538
			C28.422,46.55,27.029,45.109,25.325,45.109z"/>
		<path fill="#003F5F" d="M32.704,45.109c-1.772,0-3.14,1.439-3.14,3.147c0,0.652,0,1.802,0,2.538c0,0.363,0,0.607,0,0.607v1.102
			v1.172c0,0,0,0.248,0,0.536c0,0.781,0,2.099,0,2.538c0,1.779,1.368,3.148,3.14,3.148c1.703,0,3.069-1.369,3.069-3.148
			c0-0.58,0-1.803,0-2.538c0-0.292,0-0.536,0-0.536v-1.172v-1.102c0,0,0-0.247,0-0.607c0-0.78,0-2.026,0-2.538
			C35.773,46.55,34.406,45.109,32.704,45.109z"/>
		<path fill="#003F5F" d="M-4.19,52.503c-1.701,0-3.139,1.441-3.139,3.148c0,0.652,0,1.803,0,2.539c0,0.363,0,0.606,0,0.606v1.101
			v1.171c0,0,0,0.245,0,0.536c0,0.782,0,2.101,0,2.541c0,1.777,1.438,3.147,3.139,3.147c1.702,0,3.141-1.37,3.141-3.147
			c0-0.582,0-1.803,0-2.541c0-0.291,0-0.536,0-0.536v-1.171v-1.101c0,0,0-0.246,0-0.606c0-0.782,0-2.027,0-2.539
			C-1.05,53.945-2.489,52.503-4.19,52.503z"/>
		<path fill="#003F5F" d="M10.568,52.503c-1.702,0-3.14,1.441-3.14,3.148c0,0.652,0,1.803,0,2.539c0,0.363,0,0.606,0,0.606v1.101
			v3.733v3.661v1.171c0,0,0,0.178,0,0.536c0,0.782,0,2.035,0,2.541c0,1.779,1.439,3.148,3.14,3.148c1.702,0,3.142-1.369,3.142-3.148
			c0-0.585,0-1.803,0-2.541c0-0.361,0-0.536,0-0.536v-1.171v-7.395v-1.102c0,0,0-0.245,0-0.606c0-0.783,0-2.027,0-2.539
			C13.708,53.945,12.27,52.503,10.568,52.503z"/>
		<path fill="#003F5F" d="M-18.948,60.484c-1.702,0-3.139,1.37-3.139,3.149c0,1.705,1.438,3.074,3.139,3.074
			s3.142-1.369,3.142-3.074C-15.805,61.854-17.246,60.484-18.948,60.484z"/>
		<path fill="#003F5F" d="M40.083,59.9c-1.774,0-3.141,1.435-3.141,3.146c0,0.653,0,1.803,0,2.539c0,0.364,0,0.591,0,0.591v1.118
			v3.723v3.674v3.661v3.733v1.102c0,0,0,0.247,0,0.608c0,0.78,0,2.023,0,2.536c0,1.707,1.366,3.148,3.141,3.148
			c1.701,0,3.068-1.441,3.068-3.148c0-0.652,0-1.801,0-2.536c0-0.363,0-0.608,0-0.608v-1.102v-7.395v-7.396v-1.118
			c0,0,0-0.229,0-0.591c0-0.781,0-2.027,0-2.539C43.152,61.333,41.784,59.9,40.083,59.9z"/>
		<path fill="#003F5F" d="M-11.569,67.879c-1.703,0-3.14,1.369-3.14,3.137c0,1.717,1.438,3.086,3.14,3.086
			c1.702,0,3.142-1.369,3.142-3.086C-8.427,69.249-9.867,67.879-11.569,67.879z"/>
		<path fill="#003F5F" d="M17.946,67.293c-1.701,0-3.14,1.369-3.14,3.147c0,0.592,0,1.804,0,2.541c0,0.362,0,0.533,0,0.533v1.175
			v3.66v3.735v1.1c0,0,0,0.249,0,0.607c0,0.783,0,2.024,0,2.539c0,1.705,1.438,3.146,3.14,3.146c1.704,0,3.141-1.441,3.141-3.146
			c0-0.654,0-1.803,0-2.539c0-0.36,0-0.607,0-0.607v-1.1V74.69v-1.175c0,0,0-0.174,0-0.533c0-0.782,0-2.029,0-2.541
			C21.085,68.662,19.649,67.293,17.946,67.293z"/>
		<path fill="#003F5F" d="M-63.209,81.497c1.762,0,3.13-1.367,3.13-3.146c0-1.707-1.367-3.076-3.13-3.076
			c-1.714,0-3.079,1.369-3.079,3.076C-66.288,80.129-64.923,81.497-63.209,81.497z"/>
		<path fill="#003F5F" d="M-48.464,81.497c1.774,0,3.141-1.367,3.141-3.146c0-1.707-1.367-3.076-3.141-3.076
			c-1.702,0-3.069,1.369-3.069,3.076C-51.532,80.129-50.163,81.497-48.464,81.497z"/>
		<path fill="#003F5F" d="M-33.704,81.497c1.76,0,3.141-1.367,3.141-3.146c0-1.707-1.381-3.076-3.141-3.076
			c-1.704,0-3.078,1.369-3.078,3.076C-36.781,80.129-35.407,81.497-33.704,81.497z"/>
		<path fill="#003F5F" d="M3.188,75.274c-1.7,0-3.14,1.371-3.14,3.076c0,1.781,1.439,3.146,3.14,3.146
			c1.705,0,3.142-1.365,3.142-3.146C6.329,76.645,4.892,75.274,3.188,75.274z"/>
		<path fill="#003F5F" d="M32.704,75.274c-1.772,0-3.14,1.371-3.14,3.076c0,1.781,1.368,3.146,3.14,3.146
			c1.703,0,3.069-1.365,3.069-3.146C35.773,76.645,34.406,75.274,32.704,75.274z"/>
		<path fill="#003F5F" d="M69.527,75.274c-1.705,0-3.069,1.371-3.069,3.076c0,1.781,1.366,3.146,3.069,3.146
			c1.772,0,3.14-1.365,3.14-3.146C72.668,76.645,71.301,75.274,69.527,75.274z"/>
		<path fill="#003F5F" d="M91.663,75.274c-1.703,0-3.068,1.371-3.068,3.076c0,1.781,1.367,3.146,3.068,3.146
			c1.774,0,3.141-1.365,3.141-3.146C94.803,76.645,93.437,75.274,91.663,75.274z"/>
		<path fill="#003F5F" d="M-70.541,88.891c1.716,0,3.083-1.367,3.083-3.146c0-1.705-1.366-3.076-3.083-3.076
			c-1.759,0-3.128,1.371-3.128,3.076C-73.669,87.524-72.3,88.891-70.541,88.891z"/>
		<path fill="#003F5F" d="M-11.569,82.668c-1.703,0-3.14,1.371-3.14,3.076c0,1.779,1.438,3.146,3.14,3.146
			c1.702,0,3.142-1.367,3.142-3.146C-8.427,84.04-9.867,82.668-11.569,82.668z"/>
		<path fill="#003F5F" d="M-4.19,82.085c-1.701,0-3.139,1.367-3.139,3.146c0,0.58,0,1.803,0,2.539c0,0.291,0,0.538,0,0.538v1.171
			v1.1c0,0,0,0.247,0,0.607c0,0.78,0,2.026,0,2.539c0,1.707,1.438,3.148,3.139,3.148c1.702,0,3.141-1.441,3.141-3.148
			c0-0.65,0-1.803,0-2.539c0-0.36,0-0.607,0-0.607v-1.1v-1.171c0,0,0-0.247,0-0.538c0-0.783,0-2.099,0-2.539
			C-1.05,83.453-2.489,82.085-4.19,82.085z"/>
		<path fill="#003F5F" d="M25.325,82.085c-1.743,0-3.138,1.367-3.138,3.146c0,0.58,0,1.803,0,2.539c0,0.291,0,0.538,0,0.538v1.171
			v1.1c0,0,0,0.247,0,0.607c0,0.78,0,2.026,0,2.539c0,1.707,1.395,3.148,3.138,3.148c1.704,0,3.099-1.441,3.099-3.148
			c0-0.65,0-1.803,0-2.539c0-0.36,0-0.607,0-0.607v-1.1v-1.171c0,0,0-0.247,0-0.538c0-0.783,0-2.099,0-2.539
			C28.422,83.453,27.029,82.085,25.325,82.085z"/>
		<path fill="#003F5F" d="M54.841,82.085c-1.774,0-3.139,1.367-3.139,3.146c0,0.58,0,1.803,0,2.539c0,0.291,0,0.538,0,0.538v1.171
			v1.1c0,0,0,0.247,0,0.607c0,0.78,0,2.026,0,2.539c0,1.707,1.366,3.148,3.139,3.148c1.703,0,3.07-1.441,3.07-3.148
			c0-0.65,0-1.803,0-2.539c0-0.36,0-0.607,0-0.607v-1.1v-1.171c0,0,0-0.247,0-0.538c0-0.783,0-2.099,0-2.539
			C57.91,83.453,56.543,82.085,54.841,82.085z"/>
		<path fill="#003F5F" d="M-77.907,96.875c1.701,0,3.069-1.441,3.069-3.148c0-0.65,0-1.803,0-2.539c0-0.36,0-0.607,0-0.607v-1.1
			v-7.395v-1.174c0,0,0-0.216,0-0.535c0-0.782,0-2.096,0-2.539c0-1.779-1.368-3.147-3.069-3.147c-1.772,0-3.141,1.368-3.141,3.147
			c0,0.583,0,1.801,0,2.539c0,0.319,0,0.535,0,0.535v1.174v3.659v3.733v1.102c0,0,0,0.247,0,0.607c0,0.778,0,2.026,0,2.539
			C-81.048,95.433-79.679,96.875-77.907,96.875z"/>
		<path fill="#003F5F" d="M-66.288,95.166c0,0.291,0,0.538,0,0.538v1.171v1.1c0,0,0,0.249,0,0.607c0,0.78,0,2.026,0,2.539
			c0,1.704,1.366,3.146,3.079,3.146c1.762,0,3.13-1.442,3.13-3.146c0-0.652,0-1.803,0-2.539c0-0.36,0-0.607,0-0.607v-1.1v-1.171
			c0,0,0-0.25,0-0.538c0-0.78,0-2.094,0-2.536c0-1.782-1.367-3.151-3.13-3.151c-1.714,0-3.079,1.369-3.079,3.151
			C-66.288,93.208-66.288,94.429-66.288,95.166z"/>
		<path fill="#003F5F" d="M-41.084,96.875c1.773,0,3.141-1.441,3.141-3.148c0-0.65,0-1.803,0-2.539c0-0.36,0-0.607,0-0.607v-1.1
			v-1.171c0,0,0-0.247,0-0.538c0-0.783,0-2.099,0-2.539c0-1.779-1.366-3.146-3.141-3.146c-1.702,0-3.067,1.367-3.067,3.146
			c0,0.58,0,1.803,0,2.539c0,0.291,0,0.538,0,0.538v1.171v1.1c0,0,0,0.247,0,0.607c0,0.78,0,2.026,0,2.539
			C-44.151,95.433-42.786,96.875-41.084,96.875z"/>
		<path fill="#003F5F" d="M-33.704,96.288c1.76,0,3.141-1.369,3.141-3.146c0-1.704-1.381-3.079-3.141-3.079
			c-1.704,0-3.078,1.372-3.078,3.079C-36.781,94.918-35.407,96.288-33.704,96.288z"/>
		<path fill="#003F5F" d="M-26.325,90.065c-1.704,0-3.128,1.372-3.128,3.079c0,1.776,1.424,3.144,3.128,3.144
			c1.709,0,3.141-1.367,3.141-3.144C-23.185,91.437-24.617,90.065-26.325,90.065z"/>
		<path fill="#003F5F" d="M-18.948,89.478c-1.702,0-3.139,1.369-3.139,3.151c0,0.579,0,1.8,0,2.536c0,0.291,0,0.538,0,0.538v1.171
			v3.661v3.731v1.099c0,0,0,0.319,0,0.678c0,0.641,0,1.964,0,2.474c0,1.774,1.438,3.079,3.139,3.079s3.142-1.305,3.142-3.079
			c0-0.657,0-1.877,0-2.474c0-0.36,0-0.678,0-0.678v-1.099v-7.393v-1.171c0,0,0-0.25,0-0.538c0-0.78,0-2.097,0-2.536
			C-15.805,90.847-17.246,89.478-18.948,89.478z"/>
		<path fill="#003F5F" d="M47.46,89.478c-1.772,0-3.139,1.369-3.139,3.151c0,0.579,0,1.8,0,2.536c0,0.291,0,0.538,0,0.538v1.171
			v3.661v3.731v3.663v3.666v3.801v3.663v1.172c0,0,0,0.242,0,0.466c0,0.78,0,2.101,0,2.608c0,1.776,1.367,3.078,3.139,3.078
			c1.704,0,3.07-1.302,3.07-3.078c0-0.657,0-1.877,0-2.608c0-0.224,0-0.466,0-0.466v-1.172v-7.464v-7.329v-7.393v-1.171
			c0,0,0-0.25,0-0.538c0-0.78,0-2.094,0-2.536C50.53,90.847,49.164,89.478,47.46,89.478z"/>
		<path fill="#003F5F" d="M62.185,89.478c-1.74,0-3.106,1.369-3.106,3.151c0,0.579,0,1.8,0,2.536c0,0.291,0,0.538,0,0.538v1.171v1.1
			c0,0,0,0.249,0,0.607c0,0.78,0,2.026,0,2.539c0,1.704,1.367,3.146,3.106,3.146c1.736,0,3.103-1.442,3.103-3.146
			c0-0.652,0-1.803,0-2.539c0-0.36,0-0.607,0-0.607v-1.1v-1.171c0,0,0-0.25,0-0.538c0-0.78,0-2.097,0-2.536
			C65.288,90.847,63.921,89.478,62.185,89.478z"/>
		<path fill="#003F5F" d="M84.284,90.065c-1.704,0-3.071,1.372-3.071,3.079c0,1.776,1.367,3.144,3.071,3.144
			c1.772,0,3.14-1.367,3.14-3.144C87.425,91.437,86.057,90.065,84.284,90.065z"/>
		<path fill="#003F5F" d="M91.663,89.478c-1.703,0-3.068,1.369-3.068,3.151c0,0.579,0,1.8,0,2.536c0,0.291,0,0.538,0,0.538v1.171
			v3.661v3.731v1.099c0,0,0,0.319,0,0.678c0,0.641,0,1.964,0,2.474c0,1.774,1.367,3.079,3.068,3.079
			c1.774,0,3.141-1.305,3.141-3.079c0-0.657,0-1.877,0-2.474c0-0.36,0-0.678,0-0.678v-1.099v-7.393v-1.171c0,0,0-0.25,0-0.538
			c0-0.78,0-2.097,0-2.536C94.803,90.847,93.437,89.478,91.663,89.478z"/>
		<path fill="#003F5F" d="M99.042,82.085c-1.702,0-3.091,1.367-3.091,3.146c0,0.58,0,1.803,0,2.539c0,0.291,0,0.538,0,0.538v1.171
			v1.1c0,0,0,0.247,0,0.607c0,0.78,0,2.026,0,2.539c0,1.707,1.389,3.148,3.091,3.148c1.739,0,3.14-1.441,3.14-3.148
			c0-0.65,0-1.803,0-2.539c0-0.36,0-0.607,0-0.607v-1.1v-1.171c0,0,0-0.247,0-0.538c0-0.783,0-2.099,0-2.539
			C102.182,83.453,100.781,82.085,99.042,82.085z"/>
		<path fill="#003F5F" d="M-55.842,104.267c1.773,0,3.141-1.442,3.141-3.146c0-0.652,0-1.803,0-2.539c0-0.36,0-0.607,0-0.607v-1.1
			v-1.171c0,0,0-0.25,0-0.538c0-0.78,0-2.094,0-2.536c0-1.782-1.366-3.151-3.141-3.151c-1.701,0-3.068,1.369-3.068,3.151
			c0,0.579,0,1.8,0,2.536c0,0.291,0,0.538,0,0.538v1.171v1.1c0,0,0,0.249,0,0.607c0,0.78,0,2.026,0,2.539
			C-58.91,102.825-57.543,104.267-55.842,104.267z"/>
		<path fill="#003F5F" d="M10.568,96.875c-1.702,0-3.14,1.369-3.14,3.146c0,0.582,0,1.805,0,2.469c0,0.361,0,0.61,0,0.61v1.169
			v3.661v3.666v3.803v3.661v3.659v3.668v1.171c0,0,0,0.247,0,0.604c0,0.787,0,2.096,0,2.469c0,1.779,1.439,3.216,3.14,3.216
			c1.702,0,3.142-1.437,3.142-3.216c0-0.51,0-1.73,0-2.469c0-0.358,0-0.604,0-0.604v-1.171v-7.327v-7.464v-7.329v-1.17
			c0,0,0-0.246,0-0.607c0-0.708,0-2.026,0-2.469C13.708,98.244,12.27,96.875,10.568,96.875z"/>
		<path fill="#003F5F" d="M17.946,96.875c-1.701,0-3.14,1.369-3.14,3.146c0,0.582,0,1.805,0,2.469c0,0.361,0,0.61,0,0.61v1.169v1.1
			c0,0,0,0.316,0,0.678c0,0.641,0,1.961,0,2.473c0,1.772,1.438,3.077,3.14,3.077c1.704,0,3.141-1.305,3.141-3.077
			c0-0.656,0-1.879,0-2.473c0-0.363,0-0.678,0-0.678v-1.1V103.1c0,0,0-0.249,0-0.61c0-0.708,0-2.026,0-2.469
			C21.085,98.244,19.649,96.875,17.946,96.875z"/>
		<path fill="#003F5F" d="M32.704,96.875c-1.772,0-3.14,1.369-3.14,3.146c0,0.582,0,1.805,0,2.469c0,0.361,0,0.61,0,0.61v1.169v1.1
			c0,0,0,0.316,0,0.678c0,0.641,0,1.961,0,2.473c0,1.772,1.368,3.077,3.14,3.077c1.703,0,3.069-1.305,3.069-3.077
			c0-0.656,0-1.879,0-2.473c0-0.363,0-0.678,0-0.678v-1.1V103.1c0,0,0-0.249,0-0.61c0-0.708,0-2.026,0-2.469
			C35.773,98.244,34.406,96.875,32.704,96.875z"/>
		<path fill="#003F5F" d="M-73.669,109.957c0,0.365,0,0.612,0,0.612v1.027v1.169c0,0,0,0.249,0,0.605c0,0.785,0,2.099,0,2.469
			c0,1.779,1.369,3.221,3.128,3.221c1.716,0,3.083-1.441,3.083-3.221c0-0.51,0-1.729,0-2.469c0-0.358,0-0.605,0-0.605v-1.169v-1.027
			c0,0,0-0.249,0-0.612c0-0.78,0-2.099,0-2.611c0-1.63-1.366-3.076-3.083-3.076c-1.759,0-3.128,1.446-3.128,3.076
			C-73.669,107.998-73.669,109.223-73.669,109.957z"/>
		<path fill="#003F5F" d="M-33.704,111.004c1.76,0,3.141-1.297,3.141-3.074c0-1.772-1.381-3.076-3.141-3.076
			c-1.704,0-3.078,1.304-3.078,3.076C-36.781,109.708-35.407,111.004-33.704,111.004z"/>
		<path fill="#003F5F" d="M-26.325,104.854c-1.704,0-3.128,1.302-3.128,3.076c0,1.777,1.424,3.072,3.128,3.072
			c1.709,0,3.141-1.295,3.141-3.072C-23.185,106.156-24.617,104.854-26.325,104.854z"/>
		<path fill="#003F5F" d="M3.188,104.267c-1.7,0-3.14,1.446-3.14,3.078c0,0.652,0,1.878,0,2.611c0,0.365,0,0.61,0,0.61v1.029v3.801
			v3.663v1.172c0,0,0,0.242,0,0.466c0,0.78,0,2.101,0,2.608c0,1.776,1.439,3.078,3.14,3.078c1.705,0,3.142-1.302,3.142-3.078
			c0-0.657,0-1.877,0-2.608c0-0.224,0-0.466,0-0.466v-1.172v-7.464v-1.029c0,0,0-0.247,0-0.61c0-0.78,0-2.101,0-2.611
			C6.329,105.713,4.892,104.267,3.188,104.267z"/>
		<path fill="#003F5F" d="M54.841,104.267c-1.774,0-3.139,1.446-3.139,3.078c0,0.652,0,1.878,0,2.611c0,0.365,0,0.61,0,0.61v1.029
			v1.169c0,0,0,0.247,0,0.604c0,0.787,0,2.098,0,2.471c0,1.779,1.366,3.219,3.139,3.219c1.703,0,3.07-1.439,3.07-3.219
			c0-0.513,0-1.73,0-2.471c0-0.359,0-0.604,0-0.604v-1.169v-1.029c0,0,0-0.247,0-0.61c0-0.78,0-2.101,0-2.611
			C57.91,105.713,56.543,104.267,54.841,104.267z"/>
		<path fill="#003F5F" d="M76.904,104.267c-1.703,0-3.068,1.446-3.068,3.078c0,0.652,0,1.878,0,2.611c0,0.365,0,0.61,0,0.61v1.029
			v1.169c0,0,0,0.247,0,0.604c0,0.787,0,2.098,0,2.471c0,1.779,1.367,3.219,3.068,3.219c1.776,0,3.142-1.439,3.142-3.219
			c0-0.513,0-1.73,0-2.471c0-0.359,0-0.604,0-0.604v-1.169v-1.029c0,0,0-0.247,0-0.61c0-0.78,0-2.101,0-2.611
			C80.047,105.713,78.68,104.267,76.904,104.267z"/>
		<path fill="#003F5F" d="M99.042,104.267c-1.702,0-3.091,1.446-3.091,3.078c0,0.652,0,1.878,0,2.611c0,0.365,0,0.61,0,0.61v1.029
			v3.801v3.663v1.172c0,0,0,0.242,0,0.466c0,0.78,0,2.101,0,2.608c0,1.776,1.389,3.078,3.091,3.078c1.739,0,3.14-1.302,3.14-3.078
			c0-0.657,0-1.877,0-2.608c0-0.224,0-0.466,0-0.466v-1.172v-7.464v-1.029c0,0,0-0.247,0-0.61c0-0.78,0-2.101,0-2.611
			C102.182,105.713,100.781,104.267,99.042,104.267z"/>
		<path fill="#003F5F" d="M-58.91,117.279c0,0.365,0,0.61,0,0.61v1.171v1.172c0,0,0,0.242,0,0.466c0,0.78,0,2.101,0,2.608
			c0,1.776,1.367,3.078,3.068,3.078c1.773,0,3.141-1.302,3.141-3.078c0-0.657,0-1.877,0-2.608c0-0.224,0-0.466,0-0.466v-1.172
			v-1.171c0,0,0-0.247,0-0.61c0-0.783,0-1.954,0-2.467c0-1.779-1.366-3.216-3.141-3.216c-1.701,0-3.068,1.437-3.068,3.216
			C-58.91,115.464-58.91,116.545-58.91,117.279z"/>
		<path fill="#003F5F" d="M-51.532,117.279c0,0.365,0,0.61,0,0.61v1.171v3.659v3.665v1.172c0,0,0,0.247,0,0.604
			c0,0.787,0,2.098,0,2.469c0,1.779,1.369,3.218,3.07,3.218c1.773,0,3.141-1.438,3.141-3.218c0-0.511,0-1.729,0-2.469
			c0-0.356,0-0.604,0-0.604v-1.172v-7.326v-1.169c0,0,0-0.25,0-0.613c0-0.78,0-1.953,0-2.464c0-1.779-1.367-3.216-3.141-3.216
			c-1.701,0-3.07,1.437-3.07,3.216C-51.532,115.464-51.532,116.545-51.532,117.279z"/>
		<path fill="#003F5F" d="M-44.151,117.279c0,0.365,0,0.61,0,0.61v1.171v3.659v3.665v3.804v3.658v1.158c0,0,0,0.121,0,0.481
			c0,0.78,0,2.097,0,2.611c0,1.772,1.365,3.074,3.067,3.074c1.773,0,3.141-1.302,3.141-3.074c0-0.657,0-1.877,0-2.611
			c0-0.363,0-0.481,0-0.481v-1.158v-7.462v-7.326v-1.172c0,0,0-0.247,0-0.61c0-0.782,0-1.953,0-2.466
			c0-1.779-1.366-3.217-3.141-3.217c-1.702,0-3.067,1.438-3.067,3.217C-44.151,115.464-44.151,116.545-44.151,117.279z"/>
		<path fill="#003F5F" d="M-11.569,112.18c-1.703,0-3.14,1.438-3.14,3.217c0,1.637,1.438,3.076,3.14,3.076
			c1.702,0,3.142-1.439,3.142-3.076C-8.427,113.618-9.867,112.18-11.569,112.18z"/>
		<path fill="#003F5F" d="M40.083,111.596c-1.774,0-3.141,1.437-3.141,3.216c0,0.652,0,1.733,0,2.467c0,0.365,0,0.61,0,0.61v1.171
			v3.659v3.665v3.804v3.658v3.664v3.661v3.663v3.804v3.66v3.661v3.664v3.803v3.659v3.663v3.664v3.803v3.661v3.661v3.663v3.801v1.032
			c0,0,0,0.249,0,0.61c0,0.78,0,2.096,0,2.608c0,1.635,1.366,3.074,3.141,3.074c1.701,0,3.068-1.439,3.068-3.074
			c0-0.654,0-1.873,0-2.608c0-0.363,0-0.61,0-0.61v-1.032v-7.464v-7.322v-7.469v-7.324v-7.467v-7.325v-7.464v-7.327v-7.462v-7.329
			v-1.169c0,0,0-0.247,0-0.61c0-0.782,0-1.954,0-2.466C43.152,113.033,41.784,111.596,40.083,111.596z"/>
		<path fill="#003F5F" d="M-77.907,125.795c1.701,0,3.069-1.297,3.069-3.076c0-1.771-1.368-3.074-3.069-3.074
			c-1.772,0-3.141,1.304-3.141,3.074C-81.048,124.499-79.679,125.795-77.907,125.795z"/>
		<path fill="#003F5F" d="M-33.704,125.795c1.76,0,3.141-1.297,3.141-3.076c0-1.771-1.381-3.074-3.141-3.074
			c-1.704,0-3.078,1.304-3.078,3.074C-36.781,124.499-35.407,125.795-33.704,125.795z"/>
		<path fill="#003F5F" d="M-26.325,119.06c-1.704,0-3.128,1.444-3.128,3.072c0,0.654,0,1.877,0,2.612c0,0.366,0,0.604,0,0.604v1.036
			v1.172c0,0,0,0.247,0,0.604c0,0.787,0,2.098,0,2.469c0,1.779,1.424,3.218,3.128,3.218c1.709,0,3.141-1.438,3.141-3.218
			c0-0.511,0-1.729,0-2.469c0-0.356,0-0.604,0-0.604v-1.172v-1.036c0,0,0-0.24,0-0.604c0-0.779,0-2.098,0-2.612
			C-23.185,120.504-24.617,119.06-26.325,119.06z"/>
		<path fill="#003F5F" d="M-18.948,119.06c-1.702,0-3.139,1.444-3.139,3.072c0,0.654,0,1.877,0,2.612c0,0.366,0,0.604,0,0.604v1.036
			v3.804v3.658v3.664v3.661v1.174c0,0,0,0.246,0,0.603c0,0.785,0,1.961,0,2.472c0,1.776,1.438,3.216,3.139,3.216
			s3.142-1.439,3.142-3.216c0-0.652,0-1.73,0-2.472c0-0.358,0-0.603,0-0.603v-1.174v-7.327v-7.462v-1.036c0,0,0-0.24,0-0.604
			c0-0.78,0-2.099,0-2.613C-15.805,120.504-17.246,119.06-18.948,119.06z"/>
		<path fill="#003F5F" d="M-4.19,119.06c-1.701,0-3.139,1.444-3.139,3.072c0,0.654,0,1.877,0,2.612c0,0.366,0,0.604,0,0.604v1.036
			v1.172c0,0,0,0.247,0,0.604c0,0.787,0,2.098,0,2.469c0,1.779,1.438,3.218,3.139,3.218c1.702,0,3.141-1.438,3.141-3.218
			c0-0.511,0-1.729,0-2.469c0-0.356,0-0.604,0-0.604v-1.172v-1.036c0,0,0-0.24,0-0.604c0-0.779,0-2.098,0-2.612
			C-1.05,120.504-2.489,119.06-4.19,119.06z"/>
		<path fill="#003F5F" d="M62.185,119.645c-1.74,0-3.106,1.304-3.106,3.074c0,1.779,1.367,3.076,3.106,3.076
			c1.736,0,3.103-1.297,3.103-3.076C65.288,120.947,63.921,119.645,62.185,119.645z"/>
		<path fill="#003F5F" d="M84.284,119.645c-1.704,0-3.071,1.304-3.071,3.074c0,1.779,1.367,3.076,3.071,3.076
			c1.772,0,3.14-1.297,3.14-3.076C87.425,120.947,86.057,119.645,84.284,119.645z"/>
		<path fill="#003F5F" d="M91.663,119.06c-1.703,0-3.068,1.444-3.068,3.072c0,0.654,0,1.877,0,2.612c0,0.366,0,0.604,0,0.604v1.036
			v1.172c0,0,0,0.247,0,0.604c0,0.787,0,2.098,0,2.469c0,1.779,1.367,3.218,3.068,3.218c1.774,0,3.141-1.438,3.141-3.218
			c0-0.511,0-1.729,0-2.469c0-0.356,0-0.604,0-0.604v-1.172v-1.036c0,0,0-0.24,0-0.604c0-0.779,0-2.098,0-2.612
			C94.803,120.504,93.437,119.06,91.663,119.06z"/>
		<path fill="#003F5F" d="M-70.541,133.264c1.716,0,3.083-1.443,3.083-3.076c0-1.779-1.366-3.217-3.083-3.217
			c-1.759,0-3.128,1.438-3.128,3.217C-73.669,131.821-72.3,133.264-70.541,133.264z"/>
		<path fill="#003F5F" d="M-66.288,132.067c0,0.368,0,0.613,0,0.613v1.169v1.157c0,0,0,0.121,0,0.482c0,0.78,0,2.096,0,2.61
			c0,1.772,1.366,3.074,3.079,3.074c1.762,0,3.13-1.302,3.13-3.074c0-0.656,0-1.877,0-2.61c0-0.363,0-0.482,0-0.482v-1.157v-1.169
			c0,0,0-0.247,0-0.613c0-0.777,0-1.951,0-2.464c0-1.776-1.367-3.216-3.13-3.216c-1.714,0-3.079,1.439-3.079,3.216
			C-66.288,130.253-66.288,131.333-66.288,132.067z"/>
		<path fill="#003F5F" d="M-11.569,126.387c-1.703,0-3.14,1.437-3.14,3.216c0,0.65,0,1.73,0,2.462c0,0.368,0,0.615,0,0.615v1.166
			v1.16c0,0,0,0.119,0,0.482c0,0.78,0,2.096,0,2.61c0,1.771,1.438,3.074,3.14,3.074c1.702,0,3.142-1.304,3.142-3.074
			c0-0.656,0-1.879,0-2.61c0-0.363,0-0.482,0-0.482v-1.16v-1.166c0,0,0-0.25,0-0.615c0-0.778,0-1.949,0-2.462
			C-8.427,127.824-9.867,126.387-11.569,126.387z"/>
		<path fill="#003F5F" d="M17.946,126.971c-1.701,0-3.14,1.438-3.14,3.217c0,1.633,1.438,3.076,3.14,3.076
			c1.704,0,3.141-1.443,3.141-3.076C21.085,128.409,19.649,126.971,17.946,126.971z"/>
		<path fill="#003F5F" d="M32.704,126.971c-1.772,0-3.14,1.438-3.14,3.217c0,1.633,1.368,3.076,3.14,3.076
			c1.703,0,3.069-1.443,3.069-3.076C35.773,128.409,34.406,126.971,32.704,126.971z"/>
		<path fill="#003F5F" d="M69.527,126.387c-1.705,0-3.069,1.437-3.069,3.216c0,0.65,0,1.73,0,2.462c0,0.368,0,0.615,0,0.615v1.166
			v3.664v3.663v3.663v3.802v3.663v3.661v3.663v3.804v3.658v3.664v3.661v3.805v3.659v3.661v1.174c0,0,0,0.247,0,0.607
			c0,0.78,0,1.957,0,2.467c0,1.777,1.366,3.216,3.069,3.216c1.772,0,3.14-1.438,3.14-3.216c0-0.652,0-1.73,0-2.467
			c0-0.363,0-0.607,0-0.607v-1.174v-7.322v-7.467v-7.324v-7.467v-7.324v-7.467v-7.327v-1.167c0,0,0-0.249,0-0.614
			c0-0.778,0-1.949,0-2.462C72.668,127.824,71.301,126.387,69.527,126.387z"/>
		<path fill="#003F5F" d="M-77.907,140.584c1.701,0,3.069-1.295,3.069-3.072s-1.368-3.079-3.069-3.079
			c-1.772,0-3.141,1.302-3.141,3.079S-79.679,140.584-77.907,140.584z"/>
		<path fill="#003F5F" d="M-33.704,140.584c1.76,0,3.141-1.295,3.141-3.072s-1.381-3.079-3.141-3.079
			c-1.704,0-3.078,1.302-3.078,3.079S-35.407,140.584-33.704,140.584z"/>
		<path fill="#003F5F" d="M3.188,133.849c-1.7,0-3.14,1.297-3.14,3.076c0,0.652,0,1.873,0,2.611c0,0.363,0,0.463,0,0.463v1.174
			v1.174c0,0,0,0.247,0,0.604c0,0.784,0,1.961,0,2.471c0,1.777,1.439,3.217,3.14,3.217c1.705,0,3.142-1.439,3.142-3.217
			c0-0.652,0-1.73,0-2.471c0-0.359,0-0.604,0-0.604v-1.174V140c0,0,0-0.103,0-0.463c0-0.778,0-2.099,0-2.611
			C6.329,135.146,4.892,133.849,3.188,133.849z"/>
		<path fill="#003F5F" d="M25.325,134.433c-1.743,0-3.138,1.302-3.138,3.079s1.395,3.072,3.138,3.072
			c1.704,0,3.099-1.295,3.099-3.072C28.422,135.735,27.029,134.433,25.325,134.433z"/>
		<path fill="#003F5F" d="M47.46,134.433c-1.772,0-3.139,1.302-3.139,3.079s1.367,3.072,3.139,3.072c1.704,0,3.07-1.295,3.07-3.072
			S49.164,134.433,47.46,134.433z"/>
		<path fill="#003F5F" d="M54.841,134.433c-1.774,0-3.139,1.302-3.139,3.079s1.366,3.072,3.139,3.072c1.703,0,3.07-1.295,3.07-3.072
			S56.543,134.433,54.841,134.433z"/>
		<path fill="#003F5F" d="M62.185,134.433c-1.74,0-3.106,1.302-3.106,3.079s1.367,3.072,3.106,3.072
			c1.736,0,3.103-1.295,3.103-3.072S63.921,134.433,62.185,134.433z"/>
		<path fill="#003F5F" d="M76.904,133.849c-1.703,0-3.068,1.297-3.068,3.076c0,0.652,0,1.873,0,2.611c0,0.363,0,0.463,0,0.463v1.174
			v3.663v3.804v3.661v3.661v3.663v3.804v3.658v3.664v1.174c0,0,0,0.246,0,0.605c0,0.782,0,1.956,0,2.469
			c0,1.776,1.367,3.218,3.068,3.218c1.776,0,3.142-1.441,3.142-3.218c0-0.655,0-1.73,0-2.469c0-0.361,0-0.605,0-0.605v-1.174v-7.322
			v-7.47v-7.324v-7.464v-1.174c0,0,0-0.105,0-0.464c0-0.78,0-2.101,0-2.613C80.047,135.146,78.68,133.849,76.904,133.849z"/>
		<path fill="#003F5F" d="M-4.19,141.76c-1.701,0-3.139,1.439-3.139,3.076c0,1.775,1.438,3.217,3.139,3.217
			c1.702,0,3.141-1.441,3.141-3.217C-1.05,143.2-2.489,141.76-4.19,141.76z"/>
		<path fill="#003F5F" d="M32.704,141.173c-1.772,0-3.14,1.441-3.14,3.219c0,0.513,0,1.732,0,2.467c0,0.363,0,0.609,0,0.609v1.17
			v1.031c0,0,0,0.244,0,0.607c0,0.78,0,2.097,0,2.608c0,1.638,1.368,3.077,3.14,3.077c1.703,0,3.069-1.439,3.069-3.077
			c0-0.651,0-1.874,0-2.608c0-0.363,0-0.607,0-0.607v-1.031v-1.17c0,0,0-0.246,0-0.609c0-0.783,0-2.097,0-2.467
			C35.773,142.615,34.406,141.173,32.704,141.173z"/>
		<path fill="#003F5F" d="M91.663,141.173c-1.703,0-3.068,1.441-3.068,3.219c0,0.513,0,1.732,0,2.467c0,0.363,0,0.609,0,0.609v1.17
			v1.031c0,0,0,0.244,0,0.607c0,0.78,0,2.097,0,2.608c0,1.638,1.367,3.077,3.068,3.077c1.774,0,3.141-1.439,3.141-3.077
			c0-0.651,0-1.874,0-2.608c0-0.363,0-0.607,0-0.607v-1.031v-1.17c0,0,0-0.246,0-0.609c0-0.783,0-2.097,0-2.467
			C94.803,142.615,93.437,141.173,91.663,141.173z"/>
		<path fill="#003F5F" d="M99.042,141.173c-1.702,0-3.091,1.441-3.091,3.219c0,0.513,0,1.732,0,2.467c0,0.363,0,0.609,0,0.609v1.17
			v1.031c0,0,0,0.244,0,0.607c0,0.78,0,2.097,0,2.608c0,1.638,1.389,3.077,3.091,3.077c1.739,0,3.14-1.439,3.14-3.077
			c0-0.651,0-1.874,0-2.608c0-0.363,0-0.607,0-0.607v-1.031v-1.17c0,0,0-0.246,0-0.609c0-0.783,0-2.097,0-2.467
			C102.182,142.615,100.781,141.173,99.042,141.173z"/>
		<path fill="#003F5F" d="M17.946,149.224c-1.701,0-3.14,1.303-3.14,3.077c0,1.779,1.438,3.076,3.14,3.076
			c1.704,0,3.141-1.297,3.141-3.076C21.085,150.527,19.649,149.224,17.946,149.224z"/>
		<path fill="#003F5F" d="M54.841,149.224c-1.774,0-3.139,1.303-3.139,3.077c0,1.779,1.366,3.076,3.139,3.076
			c1.703,0,3.07-1.297,3.07-3.076C57.91,150.527,56.543,149.224,54.841,149.224z"/>
		<path fill="#003F5F" d="M-4.19,155.964c-1.701,0-3.139,1.441-3.139,3.221c0,0.511,0,1.73,0,2.465c0,0.365,0,0.609,0,0.609v1.172
			v1.027c0,0,0,0.247,0,0.61c0,0.78,0,2.096,0,2.608c0,1.637,1.438,3.076,3.139,3.076c1.702,0,3.141-1.439,3.141-3.076
			c0-0.654,0-1.875,0-2.608c0-0.366,0-0.61,0-0.61v-1.027v-1.172c0,0,0-0.246,0-0.609c0-0.78,0-2.097,0-2.465
			C-1.05,157.406-2.489,155.964-4.19,155.964z"/>
		<path fill="#003F5F" d="M3.188,156.549c-1.7,0-3.14,1.441-3.14,3.079c0,1.774,1.439,3.218,3.14,3.218
			c1.705,0,3.142-1.443,3.142-3.218C6.329,157.991,4.892,156.549,3.188,156.549z"/>
		<path fill="#003F5F" d="M-18.948,164.011c-1.702,0-3.139,1.307-3.139,3.079c0,1.779,1.438,3.076,3.139,3.076
			s3.142-1.297,3.142-3.076C-15.805,165.318-17.246,164.011-18.948,164.011z"/>
		<path fill="#003F5F" d="M-11.569,163.431c-1.703,0-3.14,1.297-3.14,3.074c0,0.652,0,1.872,0,2.482c0,0.35,0,0.594,0,0.594v1.172
			v3.661v3.806v3.658v3.661v3.664v3.803v1.029c0,0,0,0.252,0,0.61c0,0.782,0,2.097,0,2.608c0,1.638,1.438,3.077,3.14,3.077
			c1.702,0,3.142-1.439,3.142-3.077c0-0.652,0-1.87,0-2.608c0-0.361,0-0.61,0-0.61v-1.029v-7.467v-7.322v-7.466v-1.172
			c0,0,0-0.249,0-0.594c0-0.654,0-1.968,0-2.482C-8.427,164.728-9.867,163.431-11.569,163.431z"/>
		<path fill="#003F5F" d="M10.568,163.431c-1.702,0-3.14,1.297-3.14,3.074c0,0.652,0,1.872,0,2.482c0,0.35,0,0.594,0,0.594v1.172
			v3.661v3.806v3.658v3.661v1.174c0,0,0,0.247,0,0.608c0,0.78,0,1.956,0,2.466c0,1.777,1.439,3.217,3.14,3.217
			c1.702,0,3.142-1.439,3.142-3.217c0-0.651,0-1.73,0-2.466c0-0.363,0-0.608,0-0.608v-1.174v-7.322v-7.466v-1.172
			c0,0,0-0.249,0-0.594c0-0.654,0-1.968,0-2.482C13.708,164.728,12.27,163.431,10.568,163.431z"/>
		<path fill="#003F5F" d="M47.46,163.431c-1.772,0-3.139,1.297-3.139,3.074c0,0.652,0,1.872,0,2.482c0,0.35,0,0.594,0,0.594v1.172
			v1.174c0,0,0,0.244,0,0.605c0,0.78,0,1.954,0,2.469c0,1.777,1.367,3.219,3.139,3.219c1.704,0,3.07-1.441,3.07-3.219
			c0-0.654,0-1.73,0-2.469c0-0.363,0-0.605,0-0.605v-1.174v-1.172c0,0,0-0.249,0-0.594c0-0.654,0-1.968,0-2.482
			C50.53,164.728,49.164,163.431,47.46,163.431z"/>
		<path fill="#003F5F" d="M54.841,164.011c-1.774,0-3.139,1.307-3.139,3.079c0,1.779,1.366,3.076,3.139,3.076
			c1.703,0,3.07-1.297,3.07-3.076C57.91,165.318,56.543,164.011,54.841,164.011z"/>
		<path fill="#003F5F" d="M62.185,163.431c-1.74,0-3.106,1.297-3.106,3.074c0,0.652,0,1.872,0,2.482c0,0.35,0,0.594,0,0.594v1.172
			v1.174c0,0,0,0.244,0,0.605c0,0.78,0,1.954,0,2.469c0,1.777,1.367,3.219,3.106,3.219c1.736,0,3.103-1.441,3.103-3.219
			c0-0.654,0-1.73,0-2.469c0-0.363,0-0.605,0-0.605v-1.174v-1.172c0,0,0-0.249,0-0.594c0-0.654,0-1.968,0-2.482
			C65.288,164.728,63.921,163.431,62.185,163.431z"/>
		<path fill="#003F5F" d="M91.663,164.011c-1.703,0-3.068,1.307-3.068,3.079c0,1.779,1.367,3.076,3.068,3.076
			c1.774,0,3.141-1.297,3.141-3.076C94.803,165.318,93.437,164.011,91.663,164.011z"/>
		<path fill="#003F5F" d="M99.042,164.011c-1.702,0-3.091,1.307-3.091,3.079c0,1.779,1.389,3.076,3.091,3.076
			c1.739,0,3.14-1.297,3.14-3.076C102.182,165.318,100.781,164.011,99.042,164.011z"/>
		<path fill="#003F5F" d="M3.188,170.753c-1.7,0-3.14,1.444-3.14,3.076c0,0.652,0,1.878,0,2.608c0,0.366,0,0.613,0,0.613v1.169
			v1.029c0,0,0,0.247,0,0.607c0,0.783,0,2.097,0,2.611c0,1.635,1.439,3.074,3.14,3.074c1.705,0,3.142-1.439,3.142-3.074
			c0-0.654,0-1.873,0-2.611c0-0.363,0-0.607,0-0.607v-1.029v-1.169c0,0,0-0.247,0-0.613c0-0.78,0-2.096,0-2.608
			C6.329,172.198,4.892,170.753,3.188,170.753z"/>
		<path fill="#003F5F" d="M17.946,171.34c-1.701,0-3.14,1.441-3.14,3.076c0,1.775,1.438,3.219,3.14,3.219
			c1.704,0,3.141-1.443,3.141-3.219C21.085,172.782,19.649,171.34,17.946,171.34z"/>
		<path fill="#003F5F" d="M84.284,171.34c-1.704,0-3.071,1.441-3.071,3.076c0,1.775,1.367,3.219,3.071,3.219
			c1.772,0,3.14-1.443,3.14-3.219C87.425,172.782,86.057,171.34,84.284,171.34z"/>
		<path fill="#003F5F" d="M-18.948,178.669c-1.702,0-3.139,1.435-3.139,3.212c0,1.637,1.438,3.076,3.139,3.076
			s3.142-1.439,3.142-3.076C-15.805,180.104-17.246,178.669-18.948,178.669z"/>
		<path fill="#003F5F" d="M25.325,178.222c-1.743,0-3.138,1.298-3.138,3.074c0,0.652,0,1.875,0,2.469c0,0.361,0,0.605,0,0.605v1.172
			v3.663v3.804v1.029c0,0,0,0.251,0,0.61c0,0.782,0,2.096,0,2.608c0,1.637,1.395,3.076,3.138,3.076c1.704,0,3.099-1.439,3.099-3.076
			c0-0.652,0-1.87,0-2.608c0-0.361,0-0.61,0-0.61v-1.029v-7.467v-1.172c0,0,0-0.247,0-0.605c0-0.638,0-1.956,0-2.469
			C28.422,179.52,27.029,178.222,25.325,178.222z"/>
		<path fill="#003F5F" d="M32.704,178.222c-1.772,0-3.14,1.298-3.14,3.074c0,0.652,0,1.875,0,2.469c0,0.361,0,0.605,0,0.605v1.172
			v3.663v3.804v1.029c0,0,0,0.251,0,0.61c0,0.782,0,2.096,0,2.608c0,1.637,1.368,3.076,3.14,3.076c1.703,0,3.069-1.439,3.069-3.076
			c0-0.652,0-1.87,0-2.608c0-0.361,0-0.61,0-0.61v-1.029v-7.467v-1.172c0,0,0-0.247,0-0.605c0-0.638,0-1.956,0-2.469
			C35.773,179.52,34.406,178.222,32.704,178.222z"/>
		<path fill="#003F5F" d="M99.042,178.669c-1.702,0-3.091,1.435-3.091,3.212c0,1.637,1.389,3.076,3.091,3.076
			c1.739,0,3.14-1.439,3.14-3.076C102.182,180.104,100.781,178.669,99.042,178.669z"/>
		<path fill="#003F5F" d="M17.946,186.131c-1.701,0-3.14,1.441-3.14,3.074c0,1.774,1.438,3.221,3.14,3.221
			c1.704,0,3.141-1.446,3.141-3.221C21.085,187.573,19.649,186.131,17.946,186.131z"/>
		<path fill="#003F5F" d="M54.841,186.131c-1.774,0-3.139,1.441-3.139,3.074c0,1.774,1.366,3.221,3.139,3.221
			c1.703,0,3.07-1.446,3.07-3.221C57.91,187.573,56.543,186.131,54.841,186.131z"/>
		<path fill="#003F5F" d="M76.904,186.131c-1.703,0-3.068,1.441-3.068,3.074c0,1.774,1.367,3.221,3.068,3.221
			c1.776,0,3.142-1.446,3.142-3.221C80.047,187.573,78.68,186.131,76.904,186.131z"/>
		<path fill="#003F5F" d="M91.663,185.542c-1.703,0-3.068,1.443-3.068,3.079c0,0.654,0,1.874,0,2.608c0,0.365,0,0.607,0,0.607v1.169
			v1.032c0,0,0,0.249,0,0.61c0,0.779,0,2.096,0,2.608c0,1.635,1.367,3.074,3.068,3.074c1.774,0,3.141-1.439,3.141-3.074
			c0-0.655,0-1.873,0-2.608c0-0.364,0-0.61,0-0.61v-1.032v-1.169c0,0,0-0.247,0-0.607c0-0.78,0-2.099,0-2.608
			C94.803,186.986,93.437,185.542,91.663,185.542z"/>
		<path fill="#003F5F" d="M-18.948,193.457c-1.702,0-3.139,1.437-3.139,3.216c0,1.638,1.438,3.076,3.139,3.076
			s3.142-1.438,3.142-3.076C-15.805,194.893-17.246,193.457-18.948,193.457z"/>
		<path fill="#003F5F" d="M-4.19,193.457c-1.701,0-3.139,1.437-3.139,3.216c0,1.638,1.438,3.076,3.139,3.076
			c1.702,0,3.141-1.438,3.141-3.076C-1.05,194.893-2.489,193.457-4.19,193.457z"/>
		<path fill="#003F5F" d="M3.188,193.457c-1.7,0-3.14,1.437-3.14,3.216c0,1.638,1.439,3.076,3.14,3.076
			c1.705,0,3.142-1.438,3.142-3.076C6.329,194.893,4.892,193.457,3.188,193.457z"/>
		<path fill="#003F5F" d="M62.185,193.457c-1.74,0-3.106,1.437-3.106,3.216c0,1.638,1.367,3.076,3.106,3.076
			c1.736,0,3.103-1.438,3.103-3.076C65.288,194.893,63.921,193.457,62.185,193.457z"/>
		<path fill="#003F5F" d="M99.042,193.457c-1.702,0-3.091,1.437-3.091,3.216c0,1.638,1.389,3.076,3.091,3.076
			c1.739,0,3.14-1.438,3.14-3.076C102.182,194.893,100.781,193.457,99.042,193.457z"/>
		<path fill="#003F5F" d="M-47.626,15.532h-16.36c-8.002,0-14.748,5.298-16.901,12.518c-0.229,0.771-0.409,1.559-0.536,2.297
			c-0.135,0.894-0.208,1.805-0.208,2.663v16.796c0,9.632,7.929,17.482,17.645,17.482l8.145,0.001l8.215-0.001
			c9.716,0,17.646-7.851,17.646-17.484V33.007C-29.98,23.382-37.908,15.532-47.626,15.532z M-37.739,49.805
			c0,5.369-4.42,9.708-9.89,9.708h-8.213h-8.142c-5.468,0-9.889-4.342-9.889-9.708V33.009c0-1.651,0.446-3.198,1.159-4.613
			c0.753-1.294,1.822-2.464,3.036-3.313c1.611-1.104,3.594-1.776,5.692-1.776h16.36c5.467,0,9.888,4.338,9.888,9.703V49.805z"/>
		<path fill="#003F5F" d="M85.121,15.532H68.762c-8.002,0-14.749,5.298-16.902,12.518c-0.23,0.771-0.41,1.559-0.534,2.297
			c-0.138,0.894-0.21,1.805-0.21,2.663v16.796c0,9.632,7.93,17.482,17.646,17.482l8.144,0.001l8.216-0.001
			c9.716,0,17.646-7.851,17.646-17.484V33.007C102.767,23.382,94.837,15.532,85.121,15.532z M95.008,49.805
			c0,5.369-4.421,9.708-9.89,9.708h-8.214h-8.142c-5.467,0-9.89-4.342-9.89-9.708V33.009c0-1.651,0.447-3.198,1.157-4.613
			c0.756-1.294,1.823-2.464,3.038-3.313c1.581-1.104,3.594-1.776,5.692-1.776h16.358c5.466,0,9.888,4.338,9.888,9.703v16.796H95.008
			z"/>
		<path fill="#003F5F" d="M-47.626,148.645h-16.36c-8.002,0-14.748,5.296-16.901,12.448c-0.229,0.769-0.409,1.561-0.536,2.366
			c-0.135,0.747-0.208,1.658-0.208,2.59v16.868c0,9.633,7.929,17.411,17.645,17.411h8.145h8.215c9.716,0,17.646-7.776,17.646-17.413
			v-16.866C-29.98,156.421-37.908,148.645-47.626,148.645z M-37.739,182.917c0,5.356-4.42,9.707-9.89,9.707l-8.213,0.002
			l-8.142-0.002c-5.468,0-9.889-4.351-9.889-9.707v-16.868c0-1.719,0.446-3.198,1.159-4.611c0.753-1.362,1.822-2.395,3.036-3.277
			c1.611-1.141,3.594-1.814,5.692-1.814h16.36c5.467,0,9.888,4.337,9.888,9.703V182.917z"/>
		<path fill="#003F5F" d="M-50.822,30.318h-10.011c-1.286,0-2.463,0.412-3.461,1.108c-0.786,0.542-1.395,1.188-1.832,2.024
			c-0.479,0.866-0.752,1.787-0.752,2.84v10.307c0,3.23,2.725,5.906,6.047,5.906h10.009c3.362,0,6.087-2.676,6.087-5.906V36.291
			C-44.735,32.989-47.46,30.318-50.822,30.318z"/>
		<path fill="#003F5F" d="M81.924,30.318H71.886c-1.256,0-2.49,0.412-3.432,1.108c-0.786,0.542-1.427,1.188-1.833,2.024
			c-0.479,0.866-0.751,1.787-0.751,2.84v10.307c0,3.23,2.726,5.906,6.018,5.906h10.037c3.363,0,6.088-2.676,6.088-5.906V36.291
			C88.012,32.989,85.287,30.318,81.924,30.318z"/>
		<path fill="#003F5F" d="M-50.822,163.431h-10.011c-1.286,0-2.463,0.41-3.461,0.967c-0.786,0.542-1.395,1.26-1.832,2.094
			c-0.479,0.868-0.752,1.86-0.752,2.769v10.309c0,3.374,2.725,5.976,6.047,5.976h10.009c3.362,0,6.087-2.604,6.087-5.976V169.26
			C-44.735,166.033-47.46,163.431-50.822,163.431z"/>
	</g>
</g>
</svg>
