<svg xmlns="http://www.w3.org/2000/svg" xmlns:xlink="http://www.w3.org/1999/xlink" width="500" zoomAndPan="magnify" viewBox="0 0 375 374.999991" height="500" preserveAspectRatio="xMidYMid meet" version="1.0"><defs><clipPath id="c3b52ee346"><path d="M 7.921875 10.515625 L 364.484375 10.515625 L 364.484375 367.078125 L 7.921875 367.078125 Z M 7.921875 10.515625 " clip-rule="nonzero"/></clipPath><clipPath id="771bb58fe5"><path d="M 186.203125 10.515625 C 87.742188 10.515625 7.921875 90.335938 7.921875 188.796875 C 7.921875 287.257812 87.742188 367.078125 186.203125 367.078125 C 284.664062 367.078125 364.484375 287.257812 364.484375 188.796875 C 364.484375 90.335938 284.664062 10.515625 186.203125 10.515625 " clip-rule="nonzero"/></clipPath><clipPath id="8cd35a2e73"><path d="M 16 9.9375 L 365.097656 9.9375 L 365.097656 283 L 16 283 Z M 16 9.9375 " clip-rule="nonzero"/></clipPath><clipPath id="0699c76e15"><path d="M 7.347656 123 L 334 123 L 334 367.6875 L 7.347656 367.6875 Z M 7.347656 123 " clip-rule="nonzero"/></clipPath></defs><g clip-path="url(#c3b52ee346)"><g clip-path="url(#771bb58fe5)"><path fill="#ffffff" d="M 7.921875 10.515625 L 364.484375 10.515625 L 364.484375 367.078125 L 7.921875 367.078125 Z M 7.921875 10.515625 " fill-opacity="1" fill-rule="nonzero"/></g></g><g clip-path="url(#8cd35a2e73)"><path fill="#001428" d="M 186.222656 9.9375 C 107.132812 9.9375 39.929688 61.527344 16.375 132.8125 L 26.210938 132.8125 C 26.226562 132.773438 26.242188 132.738281 26.253906 132.703125 L 119.585938 132.703125 L 119.585938 254.042969 L 129.652344 254.042969 L 129.652344 132.703125 L 176.8125 132.703125 L 176.8125 123.757812 L 29.71875 123.757812 C 55.289062 62.457031 115.761719 19.238281 186.222656 19.238281 C 279.707031 19.238281 355.777344 95.304688 355.777344 188.8125 C 355.777344 220.425781 347.050781 250.039062 331.921875 275.394531 L 338.4375 282.558594 C 355.3125 255.289062 365.074219 223.175781 365.074219 188.8125 C 365.082031 90.167969 284.84375 9.9375 186.222656 9.9375 Z M 186.222656 9.9375 " fill-opacity="1" fill-rule="nonzero"/></g><g clip-path="url(#0699c76e15)"><path fill="#78d5d7" d="M 326.683594 283.679688 L 253.953125 204.082031 C 282.472656 204.082031 296.449219 185.453125 296.28125 164.210938 C 296.089844 143.894531 281.734375 123.578125 253.410156 123.578125 L 195.992188 123.578125 L 195.992188 254.042969 L 206.058594 254.042969 L 206.058594 132.902344 L 253.417969 132.902344 C 275.042969 132.902344 285.472656 148.734375 285.28125 164.019531 C 285.109375 182.285156 275.042969 195.136719 252.296875 195.136719 L 232.933594 195.136719 L 241.574219 204.648438 L 241.65625 204.648438 L 320.871094 291.734375 C 289.855469 332.214844 241.039062 358.367188 186.222656 358.367188 C 92.714844 358.367188 16.667969 282.300781 16.667969 188.8125 C 16.667969 172.625 18.996094 156.972656 23.257812 142.132812 L 13.566406 142.132812 C 9.535156 157.027344 7.347656 172.667969 7.347656 188.8125 C 7.347656 287.4375 87.578125 367.667969 186.222656 367.667969 C 243.453125 367.667969 294.484375 340.644531 327.214844 298.703125 C 329.261719 296.101562 331.230469 293.441406 333.109375 290.707031 C 333.132812 290.679688 333.152344 290.640625 333.175781 290.613281 L 326.757812 283.5625 C 326.734375 283.605469 326.714844 283.640625 326.683594 283.679688 Z M 326.683594 283.679688 " fill-opacity="1" fill-rule="nonzero"/></g></svg>