<svg xmlns="http://www.w3.org/2000/svg" xmlns:xlink="http://www.w3.org/1999/xlink" width="40" zoomAndPan="magnify" viewBox="0 0 30 30.000001" height="40" preserveAspectRatio="xMidYMid meet" version="1.0"><defs><clipPath id="7c8eb16168"><path d="M 2.152344 1.667969 L 27.554688 1.667969 L 27.554688 27.074219 L 2.152344 27.074219 Z M 2.152344 1.667969 " clip-rule="nonzero"/></clipPath></defs><g clip-path="url(#7c8eb16168)"><path fill="#0277b5" d="M 25.433594 1.667969 L 4.289062 1.667969 C 3.117188 1.667969 2.179688 2.621094 2.179688 3.777344 L 2.179688 24.964844 C 2.179688 26.132812 3.132812 27.074219 4.289062 27.074219 L 25.421875 27.074219 C 26.589844 27.074219 27.53125 26.121094 27.53125 24.964844 L 27.53125 3.777344 C 27.542969 2.621094 26.601562 1.667969 25.433594 1.667969 Z M 9.6875 22.625 L 5.941406 22.625 L 5.941406 11.367188 L 9.6875 11.367188 Z M 7.808594 10.003906 C 6.625 10.003906 5.671875 9.050781 5.671875 7.871094 C 5.671875 6.6875 6.625 5.734375 7.808594 5.734375 C 8.988281 5.734375 9.941406 6.6875 9.941406 7.871094 C 9.941406 9.050781 8.988281 10.003906 7.808594 10.003906 Z M 23.792969 22.625 L 20.035156 22.625 L 19.945312 15.941406 C 19.945312 15.941406 20.035156 14.160156 18.089844 14.175781 C 16.144531 14.1875 15.878906 15.941406 15.878906 15.941406 L 15.878906 22.625 L 12.089844 22.625 L 12.089844 11.367188 L 15.726562 11.367188 L 15.726562 12.914062 C 15.726562 12.914062 15.878906 12.40625 16.714844 11.808594 C 17.554688 11.214844 18.941406 11.085938 19.539062 11.113281 C 20.136719 11.136719 20.949219 11.035156 22.308594 11.976562 C 23.769531 12.980469 23.808594 15.609375 23.808594 15.609375 Z M 23.792969 22.625 " fill-opacity="1" fill-rule="nonzero"/></g></svg>