<svg xmlns="http://www.w3.org/2000/svg" xmlns:xlink="http://www.w3.org/1999/xlink" width="500" zoomAndPan="magnify" viewBox="0 0 375 149.999998" height="200" preserveAspectRatio="xMidYMid meet" version="1.0"><defs><g/></defs><path fill="#001428" d="M 75 0 C 41.839844 0 13.664062 21.628906 3.785156 51.519531 L 7.910156 51.519531 C 7.914062 51.503906 7.921875 51.488281 7.929688 51.472656 L 47.0625 51.472656 L 47.0625 102.347656 L 51.28125 102.347656 L 51.28125 51.472656 L 71.054688 51.472656 L 71.054688 47.722656 L 9.378906 47.722656 C 20.101562 22.019531 45.457031 3.898438 75 3.898438 C 114.199219 3.898438 146.089844 35.792969 146.089844 75 C 146.089844 88.253906 142.433594 100.671875 136.089844 111.304688 L 138.820312 114.304688 C 145.898438 102.871094 149.992188 89.40625 149.992188 75 C 149.992188 33.640625 116.351562 0 75 0 Z M 75 0 " fill-opacity="1" fill-rule="nonzero"/><path fill="#78d5d7" d="M 133.894531 114.777344 L 103.398438 81.402344 C 115.355469 81.402344 121.21875 73.589844 121.144531 64.683594 C 121.066406 56.164062 115.046875 47.648438 103.171875 47.648438 L 79.097656 47.648438 L 79.097656 102.347656 L 83.316406 102.347656 L 83.316406 51.554688 L 103.175781 51.554688 C 112.242188 51.554688 116.613281 58.195312 116.535156 64.601562 C 116.460938 72.261719 112.242188 77.652344 102.703125 77.652344 L 94.585938 77.652344 L 98.210938 81.640625 L 98.242188 81.640625 L 131.457031 118.152344 C 118.453125 135.125 97.984375 146.089844 75 146.089844 C 35.792969 146.089844 3.910156 114.199219 3.910156 75 C 3.910156 68.210938 4.882812 61.648438 6.671875 55.425781 L 2.609375 55.425781 C 0.917969 61.671875 0 68.230469 0 75 C 0 116.351562 33.640625 149.992188 75 149.992188 C 98.996094 149.992188 120.390625 138.660156 134.117188 121.074219 C 134.976562 119.984375 135.800781 118.871094 136.589844 117.722656 C 136.597656 117.710938 136.605469 117.695312 136.617188 117.683594 L 133.925781 114.726562 C 133.914062 114.746094 133.90625 114.761719 133.894531 114.777344 Z M 133.894531 114.777344 " fill-opacity="1" fill-rule="nonzero"/><g fill="#000000" fill-opacity="1"><g transform="translate(158.69491, 70.542768)"><g><path d="M 18.234375 -19.015625 L 11.140625 -19.015625 L 11.140625 0 L 7.359375 0 L 7.359375 -19.015625 L 0.28125 -19.015625 L 0.28125 -22.40625 L 18.234375 -22.40625 Z M 18.234375 -19.015625 "/></g></g></g><g fill="#000000" fill-opacity="1"><g transform="translate(177.218362, 70.542768)"><g><path d="M 12.125 -7.453125 L 12.125 0 L 8.390625 0 L 8.390625 -7.328125 L 0.03125 -22.40625 L 3.84375 -22.40625 L 10.234375 -11.484375 L 16.515625 -22.40625 L 20.359375 -22.40625 Z M 12.125 -7.453125 "/></g></g></g><g fill="#000000" fill-opacity="1"><g transform="translate(197.597347, 70.542768)"><g><path d="M 26.625 0 L 23.140625 0 L 23.109375 -16.734375 L 16.03125 -2.34375 L 13.5625 -2.34375 L 6.5 -16.734375 L 6.5 0 L 2.9375 0 L 2.9375 -22.40625 L 7.421875 -22.40625 L 14.8125 -7.515625 L 22.171875 -22.40625 L 26.625 -22.40625 Z M 26.625 0 "/></g></g></g><g fill="#000000" fill-opacity="1"><g transform="translate(227.190073, 70.542768)"><g/></g></g><g fill="#000000" fill-opacity="1"><g transform="translate(235.444044, 70.542768)"><g><path d="M 17.15625 0 L 13.0625 -6.78125 C 12.84375 -6.757812 12.5 -6.75 12.03125 -6.75 L 6.71875 -6.75 L 6.71875 0 L 2.9375 0 L 2.9375 -22.40625 L 12.03125 -22.40625 C 14.882812 -22.40625 17.101562 -21.738281 18.6875 -20.40625 C 20.269531 -19.070312 21.0625 -17.1875 21.0625 -14.75 C 21.0625 -12.957031 20.660156 -11.441406 19.859375 -10.203125 C 19.054688 -8.972656 17.910156 -8.066406 16.421875 -7.484375 L 21.4375 0 Z M 6.71875 -10.140625 L 12.03125 -10.140625 C 15.65625 -10.140625 17.46875 -11.644531 17.46875 -14.65625 C 17.46875 -17.5625 15.65625 -19.015625 12.03125 -19.015625 L 6.71875 -19.015625 Z M 6.71875 -10.140625 "/></g></g></g><g fill="#000000" fill-opacity="1"><g transform="translate(258.57436, 70.542768)"><g><path d="M 21.984375 -22.40625 L 21.984375 -9.28125 C 21.984375 -6.351562 21.117188 -4.046875 19.390625 -2.359375 C 17.660156 -0.679688 15.28125 0.15625 12.25 0.15625 C 9.226562 0.15625 6.847656 -0.679688 5.109375 -2.359375 C 3.367188 -4.046875 2.5 -6.351562 2.5 -9.28125 L 2.5 -22.40625 L 6.265625 -22.40625 L 6.265625 -9.28125 C 6.265625 -7.40625 6.800781 -5.925781 7.875 -4.84375 C 8.957031 -3.769531 10.425781 -3.234375 12.28125 -3.234375 C 14.125 -3.234375 15.570312 -3.765625 16.625 -4.828125 C 17.675781 -5.898438 18.203125 -7.382812 18.203125 -9.28125 L 18.203125 -22.40625 Z M 21.984375 -22.40625 "/></g></g></g><g fill="#000000" fill-opacity="1"><g transform="translate(283.016353, 70.542768)"><g><path d="M 2.9375 -22.40625 L 12.125 -22.40625 C 15.476562 -22.40625 18.25 -21.347656 20.4375 -19.234375 C 22.625 -17.117188 23.71875 -14.441406 23.71875 -11.203125 C 23.71875 -7.960938 22.617188 -5.285156 20.421875 -3.171875 C 18.222656 -1.054688 15.425781 0 12.03125 0 L 2.9375 0 Z M 6.71875 -19.015625 L 6.71875 -3.390625 L 12.21875 -3.390625 C 14.414062 -3.390625 16.242188 -4.117188 17.703125 -5.578125 C 19.171875 -7.046875 19.90625 -8.910156 19.90625 -11.171875 C 19.90625 -13.429688 19.148438 -15.300781 17.640625 -16.78125 C 16.140625 -18.269531 14.28125 -19.015625 12.0625 -19.015625 Z M 6.71875 -19.015625 "/></g></g></g><g fill="#000000" fill-opacity="1"><g transform="translate(307.810262, 70.542768)"><g><path d="M 22.375 0 L 18.65625 0 L 6.71875 -16.0625 L 6.71875 0 L 2.9375 0 L 2.9375 -22.40625 L 6.65625 -22.40625 L 18.65625 -6.296875 L 18.65625 -22.40625 L 22.375 -22.40625 Z M 22.375 0 "/></g></g></g><g fill="#000000" fill-opacity="1"><g transform="translate(333.148029, 70.542768)"><g><path d="M 6.71875 0 L 2.9375 0 L 2.9375 -22.40625 L 6.71875 -22.40625 Z M 6.71875 0 "/></g></g></g><g fill="#000000" fill-opacity="1"><g transform="translate(342.809657, 70.542768)"><g><path d="M 17.890625 0 L 10.53125 -9.890625 L 6.71875 -5.703125 L 6.71875 0 L 2.9375 0 L 2.9375 -22.40625 L 6.71875 -22.40625 L 6.71875 -10.8125 L 17.40625 -22.40625 L 21.859375 -22.40625 L 13.1875 -12.828125 L 22.4375 0 Z M 17.890625 0 "/></g></g></g><g fill="#78d5d7" fill-opacity="1"><g transform="translate(172.830652, 93.940938)"><g><path d="M 1.203125 0 L 1.203125 -10.390625 L 8.15625 -10.390625 L 8.15625 -8.4375 L 3.546875 -8.4375 L 3.546875 -6.25 L 7.65625 -6.25 L 7.65625 -4.296875 L 3.546875 -4.296875 L 3.546875 0 Z M 1.203125 0 "/></g></g></g><g fill="#78d5d7" fill-opacity="1"><g transform="translate(181.440648, 93.940938)"><g><path d="M 4.25 -10.515625 C 5.800781 -10.515625 6.992188 -10.234375 7.828125 -9.671875 C 8.660156 -9.117188 9.078125 -8.257812 9.078125 -7.09375 C 9.078125 -6.363281 8.90625 -5.769531 8.5625 -5.3125 C 8.226562 -4.863281 7.75 -4.507812 7.125 -4.25 C 7.332031 -3.988281 7.550781 -3.6875 7.78125 -3.34375 C 8.007812 -3.007812 8.238281 -2.660156 8.46875 -2.296875 C 8.695312 -1.929688 8.914062 -1.550781 9.125 -1.15625 C 9.332031 -0.757812 9.523438 -0.375 9.703125 0 L 7.078125 0 C 6.890625 -0.34375 6.695312 -0.6875 6.5 -1.03125 C 6.300781 -1.382812 6.097656 -1.722656 5.890625 -2.046875 C 5.691406 -2.378906 5.492188 -2.691406 5.296875 -2.984375 C 5.097656 -3.285156 4.894531 -3.554688 4.6875 -3.796875 L 3.546875 -3.796875 L 3.546875 0 L 1.203125 0 L 1.203125 -10.25 C 1.710938 -10.34375 2.238281 -10.410156 2.78125 -10.453125 C 3.320312 -10.492188 3.8125 -10.515625 4.25 -10.515625 Z M 4.375 -8.515625 C 4.207031 -8.515625 4.054688 -8.507812 3.921875 -8.5 C 3.785156 -8.488281 3.660156 -8.476562 3.546875 -8.46875 L 3.546875 -5.65625 L 4.203125 -5.65625 C 5.078125 -5.65625 5.703125 -5.765625 6.078125 -5.984375 C 6.460938 -6.203125 6.65625 -6.578125 6.65625 -7.109375 C 6.65625 -7.617188 6.460938 -7.976562 6.078125 -8.1875 C 5.691406 -8.40625 5.125 -8.515625 4.375 -8.515625 Z M 4.375 -8.515625 "/></g></g></g><g fill="#78d5d7" fill-opacity="1"><g transform="translate(191.445634, 93.940938)"><g><path d="M 3.171875 -5.203125 C 3.171875 -4.691406 3.234375 -4.226562 3.359375 -3.8125 C 3.484375 -3.40625 3.660156 -3.054688 3.890625 -2.765625 C 4.128906 -2.472656 4.414062 -2.242188 4.75 -2.078125 C 5.09375 -1.921875 5.484375 -1.84375 5.921875 -1.84375 C 6.347656 -1.84375 6.734375 -1.921875 7.078125 -2.078125 C 7.429688 -2.242188 7.722656 -2.472656 7.953125 -2.765625 C 8.191406 -3.054688 8.375 -3.40625 8.5 -3.8125 C 8.625 -4.226562 8.6875 -4.691406 8.6875 -5.203125 C 8.6875 -5.710938 8.625 -6.175781 8.5 -6.59375 C 8.375 -7.007812 8.191406 -7.363281 7.953125 -7.65625 C 7.722656 -7.945312 7.429688 -8.171875 7.078125 -8.328125 C 6.734375 -8.492188 6.347656 -8.578125 5.921875 -8.578125 C 5.484375 -8.578125 5.09375 -8.492188 4.75 -8.328125 C 4.414062 -8.160156 4.128906 -7.929688 3.890625 -7.640625 C 3.660156 -7.347656 3.484375 -6.992188 3.359375 -6.578125 C 3.234375 -6.160156 3.171875 -5.703125 3.171875 -5.203125 Z M 11.09375 -5.203125 C 11.09375 -4.316406 10.960938 -3.535156 10.703125 -2.859375 C 10.441406 -2.179688 10.078125 -1.613281 9.609375 -1.15625 C 9.148438 -0.707031 8.601562 -0.367188 7.96875 -0.140625 C 7.332031 0.0859375 6.648438 0.203125 5.921875 0.203125 C 5.210938 0.203125 4.539062 0.0859375 3.90625 -0.140625 C 3.28125 -0.367188 2.734375 -0.707031 2.265625 -1.15625 C 1.796875 -1.613281 1.425781 -2.179688 1.15625 -2.859375 C 0.882812 -3.535156 0.75 -4.316406 0.75 -5.203125 C 0.75 -6.097656 0.890625 -6.878906 1.171875 -7.546875 C 1.453125 -8.222656 1.828125 -8.789062 2.296875 -9.25 C 2.773438 -9.707031 3.328125 -10.050781 3.953125 -10.28125 C 4.578125 -10.519531 5.234375 -10.640625 5.921875 -10.640625 C 6.628906 -10.640625 7.296875 -10.519531 7.921875 -10.28125 C 8.554688 -10.050781 9.109375 -9.707031 9.578125 -9.25 C 10.054688 -8.789062 10.425781 -8.222656 10.6875 -7.546875 C 10.957031 -6.878906 11.09375 -6.097656 11.09375 -5.203125 Z M 11.09375 -5.203125 "/></g></g></g><g fill="#78d5d7" fill-opacity="1"><g transform="translate(203.295624, 93.940938)"><g><path d="M 8.171875 0 C 7.503906 -1.1875 6.78125 -2.359375 6 -3.515625 C 5.21875 -4.679688 4.390625 -5.78125 3.515625 -6.8125 L 3.515625 0 L 1.203125 0 L 1.203125 -10.390625 L 3.109375 -10.390625 C 3.429688 -10.066406 3.789062 -9.660156 4.1875 -9.171875 C 4.59375 -8.691406 5.003906 -8.179688 5.421875 -7.640625 C 5.835938 -7.097656 6.25 -6.53125 6.65625 -5.9375 C 7.070312 -5.351562 7.457031 -4.796875 7.8125 -4.265625 L 7.8125 -10.390625 L 10.140625 -10.390625 L 10.140625 0 Z M 8.171875 0 "/></g></g></g><g fill="#78d5d7" fill-opacity="1"><g transform="translate(214.635608, 93.940938)"><g><path d="M 8.90625 -10.390625 L 8.90625 -8.40625 L 5.78125 -8.40625 L 5.78125 0 L 3.4375 0 L 3.4375 -8.40625 L 0.296875 -8.40625 L 0.296875 -10.390625 Z M 8.90625 -10.390625 "/></g></g></g><g fill="#78d5d7" fill-opacity="1"><g transform="translate(223.845595, 93.940938)"><g/></g></g><g fill="#78d5d7" fill-opacity="1"><g transform="translate(227.445597, 93.940938)"><g><path d="M 1.203125 0 L 1.203125 -10.390625 L 8.21875 -10.390625 L 8.21875 -8.4375 L 3.546875 -8.4375 L 3.546875 -6.390625 L 7.6875 -6.390625 L 7.6875 -4.46875 L 3.546875 -4.46875 L 3.546875 -1.96875 L 8.5625 -1.96875 L 8.5625 0 Z M 1.203125 0 "/></g></g></g><g fill="#78d5d7" fill-opacity="1"><g transform="translate(236.535593, 93.940938)"><g><path d="M 8.171875 0 C 7.503906 -1.1875 6.78125 -2.359375 6 -3.515625 C 5.21875 -4.679688 4.390625 -5.78125 3.515625 -6.8125 L 3.515625 0 L 1.203125 0 L 1.203125 -10.390625 L 3.109375 -10.390625 C 3.429688 -10.066406 3.789062 -9.660156 4.1875 -9.171875 C 4.59375 -8.691406 5.003906 -8.179688 5.421875 -7.640625 C 5.835938 -7.097656 6.25 -6.53125 6.65625 -5.9375 C 7.070312 -5.351562 7.457031 -4.796875 7.8125 -4.265625 L 7.8125 -10.390625 L 10.140625 -10.390625 L 10.140625 0 Z M 8.171875 0 "/></g></g></g><g fill="#78d5d7" fill-opacity="1"><g transform="translate(247.875577, 93.940938)"><g><path d="M 3.546875 -1.90625 C 3.648438 -1.894531 3.773438 -1.882812 3.921875 -1.875 C 4.066406 -1.875 4.238281 -1.875 4.4375 -1.875 C 5.601562 -1.875 6.46875 -2.164062 7.03125 -2.75 C 7.601562 -3.34375 7.890625 -4.160156 7.890625 -5.203125 C 7.890625 -6.296875 7.617188 -7.117188 7.078125 -7.671875 C 6.535156 -8.234375 5.679688 -8.515625 4.515625 -8.515625 C 4.359375 -8.515625 4.191406 -8.507812 4.015625 -8.5 C 3.847656 -8.5 3.691406 -8.488281 3.546875 -8.46875 Z M 10.3125 -5.203125 C 10.3125 -4.304688 10.171875 -3.519531 9.890625 -2.84375 C 9.609375 -2.175781 9.207031 -1.625 8.6875 -1.1875 C 8.175781 -0.75 7.550781 -0.414062 6.8125 -0.1875 C 6.070312 0.03125 5.238281 0.140625 4.3125 0.140625 C 3.894531 0.140625 3.40625 0.117188 2.84375 0.078125 C 2.289062 0.046875 1.742188 -0.0234375 1.203125 -0.140625 L 1.203125 -10.265625 C 1.742188 -10.359375 2.304688 -10.421875 2.890625 -10.453125 C 3.472656 -10.492188 3.972656 -10.515625 4.390625 -10.515625 C 5.285156 -10.515625 6.09375 -10.414062 6.8125 -10.21875 C 7.539062 -10.019531 8.164062 -9.703125 8.6875 -9.265625 C 9.207031 -8.835938 9.609375 -8.285156 9.890625 -7.609375 C 10.171875 -6.941406 10.3125 -6.140625 10.3125 -5.203125 Z M 10.3125 -5.203125 "/></g></g></g><g fill="#78d5d7" fill-opacity="1"><g transform="translate(258.930569, 93.940938)"><g/></g></g><g fill="#78d5d7" fill-opacity="1"><g transform="translate(262.530571, 93.940938)"><g><path d="M 3.546875 -1.90625 C 3.648438 -1.894531 3.773438 -1.882812 3.921875 -1.875 C 4.066406 -1.875 4.238281 -1.875 4.4375 -1.875 C 5.601562 -1.875 6.46875 -2.164062 7.03125 -2.75 C 7.601562 -3.34375 7.890625 -4.160156 7.890625 -5.203125 C 7.890625 -6.296875 7.617188 -7.117188 7.078125 -7.671875 C 6.535156 -8.234375 5.679688 -8.515625 4.515625 -8.515625 C 4.359375 -8.515625 4.191406 -8.507812 4.015625 -8.5 C 3.847656 -8.5 3.691406 -8.488281 3.546875 -8.46875 Z M 10.3125 -5.203125 C 10.3125 -4.304688 10.171875 -3.519531 9.890625 -2.84375 C 9.609375 -2.175781 9.207031 -1.625 8.6875 -1.1875 C 8.175781 -0.75 7.550781 -0.414062 6.8125 -0.1875 C 6.070312 0.03125 5.238281 0.140625 4.3125 0.140625 C 3.894531 0.140625 3.40625 0.117188 2.84375 0.078125 C 2.289062 0.046875 1.742188 -0.0234375 1.203125 -0.140625 L 1.203125 -10.265625 C 1.742188 -10.359375 2.304688 -10.421875 2.890625 -10.453125 C 3.472656 -10.492188 3.972656 -10.515625 4.390625 -10.515625 C 5.285156 -10.515625 6.09375 -10.414062 6.8125 -10.21875 C 7.539062 -10.019531 8.164062 -9.703125 8.6875 -9.265625 C 9.207031 -8.835938 9.609375 -8.285156 9.890625 -7.609375 C 10.171875 -6.941406 10.3125 -6.140625 10.3125 -5.203125 Z M 10.3125 -5.203125 "/></g></g></g><g fill="#78d5d7" fill-opacity="1"><g transform="translate(273.585563, 93.940938)"><g><path d="M 1.203125 0 L 1.203125 -10.390625 L 8.21875 -10.390625 L 8.21875 -8.4375 L 3.546875 -8.4375 L 3.546875 -6.390625 L 7.6875 -6.390625 L 7.6875 -4.46875 L 3.546875 -4.46875 L 3.546875 -1.96875 L 8.5625 -1.96875 L 8.5625 0 Z M 1.203125 0 "/></g></g></g><g fill="#78d5d7" fill-opacity="1"><g transform="translate(282.675559, 93.940938)"><g><path d="M 4.296875 0 C 3.878906 -0.875 3.46875 -1.78125 3.0625 -2.71875 C 2.664062 -3.65625 2.285156 -4.582031 1.921875 -5.5 C 1.566406 -6.425781 1.238281 -7.304688 0.9375 -8.140625 C 0.632812 -8.984375 0.375 -9.734375 0.15625 -10.390625 L 2.734375 -10.390625 C 2.929688 -9.796875 3.144531 -9.148438 3.375 -8.453125 C 3.613281 -7.753906 3.851562 -7.0625 4.09375 -6.375 C 4.34375 -5.6875 4.582031 -5.023438 4.8125 -4.390625 C 5.039062 -3.765625 5.253906 -3.222656 5.453125 -2.765625 C 5.648438 -3.222656 5.863281 -3.765625 6.09375 -4.390625 C 6.332031 -5.023438 6.570312 -5.6875 6.8125 -6.375 C 7.0625 -7.0625 7.300781 -7.753906 7.53125 -8.453125 C 7.769531 -9.148438 7.988281 -9.796875 8.1875 -10.390625 L 10.6875 -10.390625 C 10.445312 -9.734375 10.175781 -8.984375 9.875 -8.140625 C 9.582031 -7.304688 9.253906 -6.425781 8.890625 -5.5 C 8.535156 -4.582031 8.15625 -3.65625 7.75 -2.71875 C 7.351562 -1.78125 6.953125 -0.875 6.546875 0 Z M 4.296875 0 "/></g></g></g><g fill="#78d5d7" fill-opacity="1"><g transform="translate(293.505549, 93.940938)"><g><path d="M 1.203125 0 L 1.203125 -10.390625 L 8.21875 -10.390625 L 8.21875 -8.4375 L 3.546875 -8.4375 L 3.546875 -6.390625 L 7.6875 -6.390625 L 7.6875 -4.46875 L 3.546875 -4.46875 L 3.546875 -1.96875 L 8.5625 -1.96875 L 8.5625 0 Z M 1.203125 0 "/></g></g></g><g fill="#78d5d7" fill-opacity="1"><g transform="translate(302.595545, 93.940938)"><g><path d="M 8.140625 -2.015625 L 8.140625 0 L 1.203125 0 L 1.203125 -10.390625 L 3.546875 -10.390625 L 3.546875 -2.015625 Z M 8.140625 -2.015625 "/></g></g></g><g fill="#78d5d7" fill-opacity="1"><g transform="translate(311.04054, 93.940938)"><g><path d="M 3.171875 -5.203125 C 3.171875 -4.691406 3.234375 -4.226562 3.359375 -3.8125 C 3.484375 -3.40625 3.660156 -3.054688 3.890625 -2.765625 C 4.128906 -2.472656 4.414062 -2.242188 4.75 -2.078125 C 5.09375 -1.921875 5.484375 -1.84375 5.921875 -1.84375 C 6.347656 -1.84375 6.734375 -1.921875 7.078125 -2.078125 C 7.429688 -2.242188 7.722656 -2.472656 7.953125 -2.765625 C 8.191406 -3.054688 8.375 -3.40625 8.5 -3.8125 C 8.625 -4.226562 8.6875 -4.691406 8.6875 -5.203125 C 8.6875 -5.710938 8.625 -6.175781 8.5 -6.59375 C 8.375 -7.007812 8.191406 -7.363281 7.953125 -7.65625 C 7.722656 -7.945312 7.429688 -8.171875 7.078125 -8.328125 C 6.734375 -8.492188 6.347656 -8.578125 5.921875 -8.578125 C 5.484375 -8.578125 5.09375 -8.492188 4.75 -8.328125 C 4.414062 -8.160156 4.128906 -7.929688 3.890625 -7.640625 C 3.660156 -7.347656 3.484375 -6.992188 3.359375 -6.578125 C 3.234375 -6.160156 3.171875 -5.703125 3.171875 -5.203125 Z M 11.09375 -5.203125 C 11.09375 -4.316406 10.960938 -3.535156 10.703125 -2.859375 C 10.441406 -2.179688 10.078125 -1.613281 9.609375 -1.15625 C 9.148438 -0.707031 8.601562 -0.367188 7.96875 -0.140625 C 7.332031 0.0859375 6.648438 0.203125 5.921875 0.203125 C 5.210938 0.203125 4.539062 0.0859375 3.90625 -0.140625 C 3.28125 -0.367188 2.734375 -0.707031 2.265625 -1.15625 C 1.796875 -1.613281 1.425781 -2.179688 1.15625 -2.859375 C 0.882812 -3.535156 0.75 -4.316406 0.75 -5.203125 C 0.75 -6.097656 0.890625 -6.878906 1.171875 -7.546875 C 1.453125 -8.222656 1.828125 -8.789062 2.296875 -9.25 C 2.773438 -9.707031 3.328125 -10.050781 3.953125 -10.28125 C 4.578125 -10.519531 5.234375 -10.640625 5.921875 -10.640625 C 6.628906 -10.640625 7.296875 -10.519531 7.921875 -10.28125 C 8.554688 -10.050781 9.109375 -9.707031 9.578125 -9.25 C 10.054688 -8.789062 10.425781 -8.222656 10.6875 -7.546875 C 10.957031 -6.878906 11.09375 -6.097656 11.09375 -5.203125 Z M 11.09375 -5.203125 "/></g></g></g><g fill="#78d5d7" fill-opacity="1"><g transform="translate(322.89053, 93.940938)"><g><path d="M 4.3125 -10.515625 C 5.863281 -10.515625 7.054688 -10.238281 7.890625 -9.6875 C 8.722656 -9.144531 9.140625 -8.253906 9.140625 -7.015625 C 9.140625 -5.765625 8.71875 -4.863281 7.875 -4.3125 C 7.03125 -3.757812 5.832031 -3.484375 4.28125 -3.484375 L 3.546875 -3.484375 L 3.546875 0 L 1.203125 0 L 1.203125 -10.25 C 1.710938 -10.34375 2.25 -10.410156 2.8125 -10.453125 C 3.382812 -10.492188 3.882812 -10.515625 4.3125 -10.515625 Z M 4.46875 -8.515625 C 4.300781 -8.515625 4.132812 -8.507812 3.96875 -8.5 C 3.800781 -8.488281 3.660156 -8.476562 3.546875 -8.46875 L 3.546875 -5.46875 L 4.28125 -5.46875 C 5.082031 -5.46875 5.6875 -5.578125 6.09375 -5.796875 C 6.507812 -6.023438 6.71875 -6.4375 6.71875 -7.03125 C 6.71875 -7.320312 6.664062 -7.5625 6.5625 -7.75 C 6.457031 -7.945312 6.304688 -8.101562 6.109375 -8.21875 C 5.910156 -8.332031 5.671875 -8.410156 5.390625 -8.453125 C 5.117188 -8.492188 4.8125 -8.515625 4.46875 -8.515625 Z M 4.46875 -8.515625 "/></g></g></g><g fill="#78d5d7" fill-opacity="1"><g transform="translate(332.550522, 93.940938)"><g><path d="M 1.203125 0 L 1.203125 -10.390625 L 8.21875 -10.390625 L 8.21875 -8.4375 L 3.546875 -8.4375 L 3.546875 -6.390625 L 7.6875 -6.390625 L 7.6875 -4.46875 L 3.546875 -4.46875 L 3.546875 -1.96875 L 8.5625 -1.96875 L 8.5625 0 Z M 1.203125 0 "/></g></g></g><g fill="#78d5d7" fill-opacity="1"><g transform="translate(341.640518, 93.940938)"><g><path d="M 4.25 -10.515625 C 5.800781 -10.515625 6.992188 -10.234375 7.828125 -9.671875 C 8.660156 -9.117188 9.078125 -8.257812 9.078125 -7.09375 C 9.078125 -6.363281 8.90625 -5.769531 8.5625 -5.3125 C 8.226562 -4.863281 7.75 -4.507812 7.125 -4.25 C 7.332031 -3.988281 7.550781 -3.6875 7.78125 -3.34375 C 8.007812 -3.007812 8.238281 -2.660156 8.46875 -2.296875 C 8.695312 -1.929688 8.914062 -1.550781 9.125 -1.15625 C 9.332031 -0.757812 9.523438 -0.375 9.703125 0 L 7.078125 0 C 6.890625 -0.34375 6.695312 -0.6875 6.5 -1.03125 C 6.300781 -1.382812 6.097656 -1.722656 5.890625 -2.046875 C 5.691406 -2.378906 5.492188 -2.691406 5.296875 -2.984375 C 5.097656 -3.285156 4.894531 -3.554688 4.6875 -3.796875 L 3.546875 -3.796875 L 3.546875 0 L 1.203125 0 L 1.203125 -10.25 C 1.710938 -10.34375 2.238281 -10.410156 2.78125 -10.453125 C 3.320312 -10.492188 3.8125 -10.515625 4.25 -10.515625 Z M 4.375 -8.515625 C 4.207031 -8.515625 4.054688 -8.507812 3.921875 -8.5 C 3.785156 -8.488281 3.660156 -8.476562 3.546875 -8.46875 L 3.546875 -5.65625 L 4.203125 -5.65625 C 5.078125 -5.65625 5.703125 -5.765625 6.078125 -5.984375 C 6.460938 -6.203125 6.65625 -6.578125 6.65625 -7.109375 C 6.65625 -7.617188 6.460938 -7.976562 6.078125 -8.1875 C 5.691406 -8.40625 5.125 -8.515625 4.375 -8.515625 Z M 4.375 -8.515625 "/></g></g></g></svg>